HIERARCHY
ROOT hip
{
  OFFSET 0 90.174 2.4664
  CHANNELS 6 Xposition Yposition Zposition Zrotation Xrotation Yrotation
  JOINT abdomen
  {
    OFFSET 0 -1.186 -1.5018
    CHANNELS 6 Xposition Yposition Zposition Zrotation Xrotation Yrotation
    JOINT abdomen2
    {
      OFFSET 0 9.964 0.2134
      CHANNELS 6 Xposition Yposition Zposition Zrotation Xrotation Yrotation
      JOINT chest
      {
        OFFSET 0 13.134 -3.2573
        CHANNELS 6 Xposition Yposition Zposition Zrotation Xrotation Yrotation
        JOINT neck
        {
          OFFSET 0 20.686 -1.6905
          CHANNELS 6 Xposition Yposition Zposition Zrotation Xrotation Yrotation
          JOINT head
          {
            OFFSET 0 7.238 -0.1237
            CHANNELS 6 Xposition Yposition Zposition Zrotation Xrotation Yrotation
            End Site
            {
              OFFSET 0 0 0
            }
          }
        }
        JOINT lCollar
        {
          OFFSET 1.7069 20.075 5.0056
          CHANNELS 6 Xposition Yposition Zposition Zrotation Xrotation Yrotation
          JOINT lShldr
          {
            OFFSET 13.6458 -0.047 -4.849
            CHANNELS 6 Xposition Yposition Zposition Zrotation Xrotation Yrotation
            JOINT lForeArm
            {
              OFFSET 28.3255 -0.9759 2.2888
              CHANNELS 6 Xposition Yposition Zposition Zrotation Xrotation Yrotation
              JOINT lHand
              {
                OFFSET 22.1583 -0.53 10.8316
                CHANNELS 6 Xposition Yposition Zposition Zrotation Xrotation Yrotation
                JOINT lThumb1
                {
                  OFFSET 0.786 0.112 2.5817
                  CHANNELS 6 Xposition Yposition Zposition Zrotation Xrotation Yrotation
                  JOINT lThumb2
                  {
                    OFFSET 0.3601 -0.878 4.2331
                    CHANNELS 6 Xposition Yposition Zposition Zrotation Xrotation Yrotation
                    JOINT lThumb2_End
                    {
                      OFFSET 1.8127 -1.216 2.2227
                      CHANNELS 6 Xposition Yposition Zposition Zrotation Xrotation Yrotation
                      End Site
                      {
                        OFFSET 0.0181 -0.0122 0.0222
                      }
                    }
                  }
                }
                JOINT lCarpal1
                {
                  OFFSET 0.9571 1.114 1.7695
                  CHANNELS 6 Xposition Yposition Zposition Zrotation Xrotation Yrotation
                  JOINT lIndex1
                  {
                    OFFSET 4.1246 0.487 4.1451
                    CHANNELS 6 Xposition Yposition Zposition Zrotation Xrotation Yrotation
                    JOINT lIndex2
                    {
                      OFFSET 3.4052 -1.454 2.7682
                      CHANNELS 6 Xposition Yposition Zposition Zrotation Xrotation Yrotation
                      JOINT lIndex2_End
                      {
                        OFFSET 1.4531 -1.795 1.2713
                        CHANNELS 6 Xposition Yposition Zposition Zrotation Xrotation Yrotation
                        End Site
                        {
                          OFFSET 0.0145 -0.0179 0.0127
                        }
                      }
                    }
                  }
                  JOINT lMid1
                  {
                    OFFSET 5.6954 0.21 2.1184
                    CHANNELS 6 Xposition Yposition Zposition Zrotation Xrotation Yrotation
                    JOINT lMid2
                    {
                      OFFSET 3.9766 -1.54 2.3863
                      CHANNELS 6 Xposition Yposition Zposition Zrotation Xrotation Yrotation
                      JOINT lMid2_End
                      {
                        OFFSET 1.4042 -1.926 1.125
                        CHANNELS 6 Xposition Yposition Zposition Zrotation Xrotation Yrotation
                        End Site
                        {
                          OFFSET 0.014 -0.0193 0.0113
                        }
                      }
                    }
                  }
                }
                JOINT lCarpal2
                {
                  OFFSET 2.0956 0.66 -0.3894
                  CHANNELS 6 Xposition Yposition Zposition Zrotation Xrotation Yrotation
                  JOINT lRing1
                  {
                    OFFSET 5.0395 -0.09 2.4971
                    CHANNELS 6 Xposition Yposition Zposition Zrotation Xrotation Yrotation
                    JOINT lRing2
                    {
                      OFFSET 3.7921 -1.552 1.4806
                      CHANNELS 6 Xposition Yposition Zposition Zrotation Xrotation Yrotation
                      JOINT lRing2_End
                      {
                        OFFSET 1.4655 -1.808 0.9609
                        CHANNELS 6 Xposition Yposition Zposition Zrotation Xrotation Yrotation
                        End Site
                        {
                          OFFSET 0.0147 -0.0181 0.0096
                        }
                      }
                    }
                  }
                  JOINT lPinky1
                  {
                    OFFSET 4.9141 -1.269 0.3591
                    CHANNELS 6 Xposition Yposition Zposition Zrotation Xrotation Yrotation
                    JOINT lPinky2
                    {
                      OFFSET 3.1477 -1.685 0.8462
                      CHANNELS 6 Xposition Yposition Zposition Zrotation Xrotation Yrotation
                      JOINT lPinky2_End
                      {
                        OFFSET 0.8055 -1.585 0.7955
                        CHANNELS 6 Xposition Yposition Zposition Zrotation Xrotation Yrotation
                        End Site
                        {
                          OFFSET 0.0081 -0.0158 0.008
                        }
                      }
                    }
                  }
                }
              }
            }
          }
        }
        JOINT rCollar
        {
          OFFSET -1.7069 20.075 5.0056
          CHANNELS 6 Xposition Yposition Zposition Zrotation Xrotation Yrotation
          JOINT rShldr
          {
            OFFSET -13.6458 -0.047 -4.849
            CHANNELS 6 Xposition Yposition Zposition Zrotation Xrotation Yrotation
            JOINT rForeArm
            {
              OFFSET -28.3255 -0.9759 2.2888
              CHANNELS 6 Xposition Yposition Zposition Zrotation Xrotation Yrotation
              JOINT rHand
              {
                OFFSET -22.1583 -0.53 10.8316
                CHANNELS 6 Xposition Yposition Zposition Zrotation Xrotation Yrotation
                JOINT rThumb1
                {
                  OFFSET -0.786 0.112 2.5817
                  CHANNELS 6 Xposition Yposition Zposition Zrotation Xrotation Yrotation
                  JOINT rThumb2
                  {
                    OFFSET -0.3601 -0.878 4.2331
                    CHANNELS 6 Xposition Yposition Zposition Zrotation Xrotation Yrotation
                    JOINT rThumb2_End
                    {
                      OFFSET -1.8127 -1.216 2.2227
                      CHANNELS 6 Xposition Yposition Zposition Zrotation Xrotation Yrotation
                      End Site
                      {
                        OFFSET -0.0181 -0.0122 0.0222
                      }
                    }
                  }
                }
                JOINT rCarpal1
                {
                  OFFSET -0.9571 1.114 1.7695
                  CHANNELS 6 Xposition Yposition Zposition Zrotation Xrotation Yrotation
                  JOINT rIndex1
                  {
                    OFFSET -4.1246 0.487 4.1451
                    CHANNELS 6 Xposition Yposition Zposition Zrotation Xrotation Yrotation
                    JOINT rIndex2
                    {
                      OFFSET -3.4052 -1.454 2.7682
                      CHANNELS 6 Xposition Yposition Zposition Zrotation Xrotation Yrotation
                      JOINT rIndex2_End
                      {
                        OFFSET -1.4531 -1.795 1.2713
                        CHANNELS 6 Xposition Yposition Zposition Zrotation Xrotation Yrotation
                        End Site
                        {
                          OFFSET -0.0145 -0.018 0.0127
                        }
                      }
                    }
                  }
                  JOINT rMid1
                  {
                    OFFSET -5.6954 0.21 2.1184
                    CHANNELS 6 Xposition Yposition Zposition Zrotation Xrotation Yrotation
                    JOINT rMid2
                    {
                      OFFSET -3.9766 -1.54 2.3863
                      CHANNELS 6 Xposition Yposition Zposition Zrotation Xrotation Yrotation
                      JOINT rMid2_End
                      {
                        OFFSET -1.4042 -1.926 1.125
                        CHANNELS 6 Xposition Yposition Zposition Zrotation Xrotation Yrotation
                        End Site
                        {
                          OFFSET -0.014 -0.0193 0.0113
                        }
                      }
                    }
                  }
                }
                JOINT rCarpal2
                {
                  OFFSET -2.0956 0.66 -0.3894
                  CHANNELS 6 Xposition Yposition Zposition Zrotation Xrotation Yrotation
                  JOINT rRing1
                  {
                    OFFSET -5.0395 -0.09 2.4971
                    CHANNELS 6 Xposition Yposition Zposition Zrotation Xrotation Yrotation
                    JOINT rRing2
                    {
                      OFFSET -3.7921 -1.552 1.4806
                      CHANNELS 6 Xposition Yposition Zposition Zrotation Xrotation Yrotation
                      JOINT rRing2_End
                      {
                        OFFSET -1.4655 -1.808 0.9609
                        CHANNELS 6 Xposition Yposition Zposition Zrotation Xrotation Yrotation
                        End Site
                        {
                          OFFSET -0.0147 -0.0181 0.0096
                        }
                      }
                    }
                  }
                  JOINT rPinky1
                  {
                    OFFSET -4.9141 -1.269 0.3592
                    CHANNELS 6 Xposition Yposition Zposition Zrotation Xrotation Yrotation
                    JOINT rPinky2
                    {
                      OFFSET -3.1477 -1.685 0.8462
                      CHANNELS 6 Xposition Yposition Zposition Zrotation Xrotation Yrotation
                      JOINT rPinky2_End
                      {
                        OFFSET -0.8055 -1.585 0.7955
                        CHANNELS 6 Xposition Yposition Zposition Zrotation Xrotation Yrotation
                        End Site
                        {
                          OFFSET -0.0081 -0.0158 0.008
                        }
                      }
                    }
                  }
                }
              }
            }
          }
        }
      }
    }
  }
  JOINT lThigh
  {
    OFFSET 8.367 -8.2066 0.5982
    CHANNELS 6 Xposition Yposition Zposition Zrotation Xrotation Yrotation
    JOINT lShin
    {
      OFFSET 2.1923 -43.463 -0.4932
      CHANNELS 6 Xposition Yposition Zposition Zrotation Xrotation Yrotation
      JOINT lFoot
      {
        OFFSET 0.7333 -45.8593 -2.6451
        CHANNELS 6 Xposition Yposition Zposition Zrotation Xrotation Yrotation
        End Site
        {
          OFFSET 2.6618 -4.2699 12.3931
        }
      }
    }
  }
  JOINT rThigh
  {
    OFFSET -8.367 -8.2066 0.5982
    CHANNELS 6 Xposition Yposition Zposition Zrotation Xrotation Yrotation
    JOINT rShin
    {
      OFFSET -2.1923 -43.463 -0.4931
      CHANNELS 6 Xposition Yposition Zposition Zrotation Xrotation Yrotation
      JOINT rFoot
      {
        OFFSET -0.7333 -45.8593 -2.6451
        CHANNELS 6 Xposition Yposition Zposition Zrotation Xrotation Yrotation
        End Site
        {
          OFFSET -2.6618 -4.2699 12.3931
        }
      }
    }
  }
}
MOTION
Frames:	4
Frame Time:	0.0333333
0 90.174 2.4664 0 0 -0 0 -1.186 -1.5018 0 0 -0 0 9.964 0.2134 0 0 -0 0 13.134 -3.2573 0 0 -0 0 20.686 -1.6905 0 0 -0 0 7.238 -0.1237 0 0 -0 1.7069 20.075 5.0056 0 0 -0 13.6458 -0.047 -4.849 1.66051 0.0835086 5.75766 28.3255 -0.9759 2.2888 -0.0175111 0.895433 15.7816 22.1583 -0.53 10.8316 7.95139e-016 -1.98785e-016 -0 0.786 0.112 2.5817 5.46658e-016 -3.97569e-016 -0 0.3601 -0.878 4.2331 5.96354e-016 0 -0 1.8127 -1.216 2.2227 3.97569e-016 1.98785e-016 9.54166e-015 0.9571 1.114 1.7695 1.49089e-016 -3.97569e-016 -0 4.1246 0.487 4.1451 6.4605e-016 0 3.18055e-015 3.4052 -1.454 2.7682 5.96354e-016 0 3.18055e-015 1.4531 -1.795 1.2713 8.94531e-016 -1.98785e-016 6.36111e-015 5.6954 0.21 2.1184 6.4605e-016 0 3.18055e-015 3.9766 -1.54 2.3863 5.96354e-016 0 3.18055e-015 1.4042 -1.926 1.125 8.94531e-016 -1.98785e-016 6.36111e-015 2.0956 0.66 -0.3894 1.49089e-016 -3.97569e-016 -0 5.0395 -0.09 2.4971 6.4605e-016 0 3.18055e-015 3.7921 -1.552 1.4806 5.96354e-016 0 3.18055e-015 1.4655 -1.808 0.9609 8.94531e-016 -1.98785e-016 6.36111e-015 4.9141 -1.269 0.3591 6.4605e-016 0 3.18055e-015 3.1477 -1.685 0.8462 5.96354e-016 0 3.18055e-015 0.8055 -1.585 0.7955 8.94531e-016 -1.98785e-016 6.36111e-015 -1.7069 20.075 5.0056 0 0 -0 -13.6458 -0.047 -4.849 -1.4496 0.0636048 -5.0245 -28.3255 -0.9759 2.2888 -1.74811 1.20616 -16.8394 -22.1583 -0.53 10.8316 -1.19271e-015 1.98785e-016 -3.18055e-015 -0.786 0.112 2.5817 -3.97569e-016 1.98785e-016 -3.18055e-015 -0.3601 -0.878 4.2331 -2.98177e-016 1.98785e-016 -3.18055e-015 -1.8127 -1.216 2.2227 -2.98177e-016 3.97569e-016 -0 -0.9571 1.114 1.7695 4.96962e-016 0 -6.36111e-015 -4.1246 0.487 4.1451 -9.93923e-017 3.97569e-016 -0 -3.4052 -1.454 2.7682 -8.94531e-016 5.96354e-016 -0 -1.4531 -1.795 1.2713 -3.97569e-016 3.97569e-016 -0 -5.6954 0.21 2.1184 -9.93923e-017 3.97569e-016 -0 -3.9766 -1.54 2.3863 -8.94531e-016 5.96354e-016 -0 -1.4042 -1.926 1.125 -3.97569e-016 3.97569e-016 -0 -2.0956 0.66 -0.3894 4.96962e-016 0 -6.36111e-015 -5.0395 -0.09 2.4971 -9.93923e-017 3.97569e-016 -0 -3.7921 -1.552 1.4806 -8.94531e-016 5.96354e-016 -0 -1.4655 -1.808 0.9609 -3.97569e-016 3.97569e-016 -0 -4.9141 -1.269 0.3592 -9.93923e-017 3.97569e-016 -0 -3.1477 -1.685 0.8462 -8.94531e-016 5.96354e-016 -0 -0.8055 -1.585 0.7955 -3.97569e-016 3.97569e-016 -0 8.367 -8.2066 0.5982 -4.66115 -1.03232 0.120763 2.1923 -43.463 -0.4932 0.00990601 1.55097 0.177175 0.7333 -45.8593 -2.6451 4.65196 -0.54114 -0.255042 -8.367 -8.2066 0.5982 4.66115 -1.03222 -0.120763 -2.1923 -43.463 -0.4931 -0.00990459 1.5509 -0.177176 -0.7333 -45.8593 -2.6451 -4.65196 -0.541171 0.255041 
4.76732 85.8421 0.965612 -133.333 -5.18128 -4.3875e-008 0 -1.186 -1.5018 -0.0715436 -3.89555 -0.186454 0 9.964 0.2134 -0.156363 -7.79081 -0.379112 0 13.134 -3.2573 -0.156339 -7.79082 -0.379113 0 20.686 -1.6905 -1.85357e-005 12.5382 4.32734e-006 -1.42109e-014 7.238 -0.1237 -3.52014e-006 -6.51607 7.81723e-008 1.7069 20.075 5.0056 -15.0135 9.78834 16.7581 13.6458 -0.047 -4.849 0.505708 1.09065 -51.1176 28.3255 -0.9759 2.2888 -13.4476 -4.32968 -26.066 22.1583 -0.53 10.8316 -35.6606 -23.5484 -14.2123 0.786 0.112 2.5817 -2.09071e-006 -2.9974e-008 2.22158e-007 0.3601 -0.878 4.2331 -3.92573e-006 -3.90864e-007 3.58978e-007 1.8127 -1.216 2.2227 -2.34639e-006 3.00942e-007 3.07497e-007 0.9571 1.114 1.7695 3.18055e-015 2.38542e-015 -0 4.1246 0.487 4.1451 -2.09071e-006 -2.9974e-008 2.22158e-007 3.4052 -1.454 2.7682 -3.92573e-006 -3.90864e-007 3.58978e-007 1.4531 -1.795 1.2713 -2.34639e-006 3.00942e-007 3.07497e-007 5.6954 0.21 2.1184 -2.09071e-006 -2.9974e-008 2.22158e-007 3.9766 -1.54 2.3863 -3.92573e-006 -3.90864e-007 3.58978e-007 1.4042 -1.926 1.125 -2.34639e-006 3.00942e-007 3.07497e-007 2.0956 0.66 -0.3894 3.18055e-015 2.38542e-015 -0 5.0395 -0.09 2.4971 -2.09071e-006 -2.9974e-008 2.22158e-007 3.7921 -1.552 1.4806 -3.92573e-006 -3.90864e-007 3.58978e-007 1.4655 -1.808 0.9609 -2.34639e-006 3.00942e-007 3.07497e-007 4.9141 -1.269 0.3591 -2.09071e-006 -2.9974e-008 2.22158e-007 3.1477 -1.685 0.8462 -3.92573e-006 -3.90864e-007 3.58978e-007 0.8055 -1.585 0.7955 -2.34639e-006 3.00942e-007 3.07497e-007 -1.7069 20.075 5.0056 12.508 9.02524 -16.7159 -13.6458 -0.047 -4.849 -1.37918 -1.83988 59.0036 -28.3255 -0.9759 2.2888 9.71136 -9.02921 21.349 -22.1583 -0.53 10.8316 38.4657 -19.804 17.0352 -0.786 0.112 2.5817 4.6346e-031 -5.56597e-015 4.77083e-015 -0.3601 -0.878 4.2331 1.59028e-015 -7.15625e-015 3.18055e-015 -1.8127 -1.216 2.2227 1.59028e-015 -6.75868e-015 -1.59028e-015 -0.9571 1.114 1.7695 1.59028e-015 2.78299e-015 3.18055e-015 -4.1246 0.487 4.1451 4.77083e-015 -2.62396e-014 9.54166e-015 -3.4052 -1.454 2.7682 1.59028e-015 -5.96354e-015 3.18055e-015 -1.4531 -1.795 1.2713 1.59028e-015 -7.15625e-015 3.18055e-015 -5.6954 0.21 2.1184 4.77083e-015 -2.62396e-014 9.54166e-015 -3.9766 -1.54 2.3863 1.59028e-015 -5.96354e-015 3.18055e-015 -1.4042 -1.926 1.125 1.59028e-015 -7.15625e-015 3.18055e-015 -2.0956 0.66 -0.3894 1.59028e-015 2.78299e-015 3.18055e-015 -5.0395 -0.09 2.4971 4.77083e-015 -2.62396e-014 9.54166e-015 -3.7921 -1.552 1.4806 1.59028e-015 -5.96354e-015 3.18055e-015 -1.4655 -1.808 0.9609 1.59028e-015 -7.15625e-015 3.18055e-015 -4.9141 -1.269 0.3592 4.77083e-015 -2.62396e-014 9.54166e-015 -3.1477 -1.685 0.8462 1.59028e-015 -5.96354e-015 3.18055e-015 -0.8055 -1.585 0.7955 1.59028e-015 -7.15625e-015 3.18055e-015 8.367 -8.2066 0.5982 49.0243 -65.1465 46.0214 2.1923 -43.463 -0.4932 -63.8152 46.5021 82.0313 0.7333 -45.8593 -2.6451 16.2968 20.6335 -19.2166 -8.367 -8.2066 0.5982 -41.435 -61.6393 -38.3361 -2.1923 -43.463 -0.4931 48.8909 40.0212 -69.8189 -0.7333 -45.8593 -2.6451 -14.8142 21.6425 18.9336 
-1.25882 90.1969 2.05242 166.667 -7.51338 1.45433e-008 0 -1.186 -1.5018 -0.122339 -5.59613 -0.268535 -3.55271e-015 9.964 0.2134 -0.273145 -11.1916 -0.553132 0 13.134 -3.2573 -0.273143 -11.1916 -0.553131 3.55271e-015 20.686 -1.6905 -1.04425e-006 18.4411 3.74173e-006 0 7.238 -0.1237 -2.36439e-006 -10.2011 -5.73582e-007 1.7069 20.075 5.0056 -23.573 13.3445 24.6557 13.6458 -0.047 -4.849 0.612399 -0.773887 -76.6019 28.3255 -0.9759 2.2888 -21.6623 -3.76479 -45.1385 22.1583 -0.53 10.8316 -56.3926 -31.4452 -22.6831 0.786 0.112 2.5817 -1.06157e-006 -2.8586e-007 -1.26397e-006 0.3601 -0.878 4.2331 6.36111e-015 -3.18055e-015 2.38542e-015 1.8127 -1.216 2.2227 6.36111e-015 0 1.59028e-015 0.9571 1.114 1.7695 -6.36111e-015 -3.18055e-015 -0 4.1246 0.487 4.1451 -1.06157e-006 -2.8586e-007 -1.26397e-006 3.4052 -1.454 2.7682 6.36111e-015 1.59028e-015 7.95139e-016 1.4531 -1.795 1.2713 9.54166e-015 0 7.95139e-016 5.6954 0.21 2.1184 -1.06157e-006 -2.8586e-007 -1.26397e-006 3.9766 -1.54 2.3863 6.36111e-015 1.59028e-015 7.95139e-016 1.4042 -1.926 1.125 9.54166e-015 0 7.95139e-016 2.0956 0.66 -0.3894 -6.36111e-015 -3.18055e-015 -0 5.0395 -0.09 2.4971 -1.06157e-006 -2.8586e-007 -1.26397e-006 3.7921 -1.552 1.4806 6.36111e-015 1.59028e-015 7.95139e-016 1.4655 -1.808 0.9609 9.54166e-015 0 7.95139e-016 4.9141 -1.269 0.3591 -1.06157e-006 -2.8586e-007 -1.26397e-006 3.1477 -1.685 0.8462 6.36111e-015 1.59028e-015 7.95139e-016 0.8055 -1.585 0.7955 9.54166e-015 0 7.95139e-016 -1.7069 20.075 5.0056 19.8041 12.2696 -24.5843 -13.6458 -0.047 -4.849 -0.801496 -1.35788 87.8279 -28.3255 -0.9759 2.2888 18.515 -9.53905 39.2631 -22.1583 -0.53 10.8316 60.3939 -25.3802 25.4565 -0.786 0.112 2.5817 2.59674e-006 1.67861e-006 4.03832e-006 -0.3601 -0.878 4.2331 3.44129e-007 1.36392e-007 -2.11735e-007 -1.8127 -1.216 2.2227 -2.59674e-006 -1.67861e-006 -4.03832e-006 -0.9571 1.114 1.7695 -1.76556e-031 3.18055e-015 3.18055e-015 -4.1246 0.487 4.1451 2.59674e-006 1.67861e-006 4.03832e-006 -3.4052 -1.454 2.7682 3.44129e-007 1.36392e-007 -2.11735e-007 -1.4531 -1.795 1.2713 -2.59674e-006 -1.67861e-006 -4.03832e-006 -5.6954 0.21 2.1184 2.59674e-006 1.67861e-006 4.03832e-006 -3.9766 -1.54 2.3863 3.44129e-007 1.36392e-007 -2.11735e-007 -1.4042 -1.926 1.125 -2.59674e-006 -1.67861e-006 -4.03832e-006 -2.0956 0.66 -0.3894 -1.76556e-031 3.18055e-015 3.18055e-015 -5.0395 -0.09 2.4971 2.59674e-006 1.67861e-006 4.03832e-006 -3.7921 -1.552 1.4806 3.44129e-007 1.36392e-007 -2.11735e-007 -1.4655 -1.808 0.9609 -2.59674e-006 -1.67861e-006 -4.03832e-006 -4.9141 -1.269 0.3592 2.59674e-006 1.67861e-006 4.03832e-006 -3.1477 -1.685 0.8462 3.44129e-007 1.36392e-007 -2.11735e-007 -0.8055 -1.585 0.7955 -2.59674e-006 -1.67861e-006 -4.03832e-006 8.367 -8.2066 0.5982 123.068 -63.0508 108.9 2.1923 -43.463 -0.4932 -99.9857 25.0988 102.812 0.7333 -45.8593 -2.6451 23.8 28.3259 -29.1297 -8.367 -8.2066 0.5982 -117.392 -64.1555 -104.93 -2.1923 -43.463 -0.4931 85.7226 23.6479 -95.9669 -0.7333 -45.8593 -2.6451 -24.4734 26.8581 29.127 
-0.0630681 88.8798 1.97444 -180 -6.99617 -7.01671e-015 1.38778e-017 -1.186 -1.5018 -0.1105 -5.10193 -0.249999 2.77556e-017 9.964 0.2134 -0.244918 -10.2033 -0.512993 0 13.134 -3.2573 -0.244918 -10.2033 -0.512993 0 20.686 -1.6905 -8.26707e-007 17.7106 2.44031e-006 1.11022e-016 7.238 -0.1237 3.09844e-008 -11.0559 -2.34769e-007 1.7069 20.075 5.0056 -21.4358 12.2356 22.8692 13.6458 -0.047 -4.849 0.642703 -0.211594 -70.9524 28.3255 -0.9759 2.2888 -19.9055 -3.92241 -41.4725 22.1583 -0.53 10.8316 -51.2728 -30.0981 -20.6045 0.786 0.112 2.5817 9.54166e-015 1.59028e-015 5.56597e-015 0.3601 -0.878 4.2331 -3.86217e-031 -3.97569e-015 -5.56597e-015 1.8127 -1.216 2.2227 -6.36111e-015 -3.57812e-015 3.97569e-016 0.9571 1.114 1.7695 9.54166e-015 1.59028e-015 5.56597e-015 4.1246 0.487 4.1451 -9.54166e-015 5.1684e-015 -1.19271e-015 3.4052 -1.454 2.7682 -3.18055e-015 7.15625e-015 4.37326e-015 1.4531 -1.795 1.2713 6.62086e-032 3.18055e-015 -1.19271e-015 5.6954 0.21 2.1184 -9.54166e-015 5.1684e-015 -1.19271e-015 3.9766 -1.54 2.3863 -3.18055e-015 7.15625e-015 4.37326e-015 1.4042 -1.926 1.125 6.62086e-032 3.18055e-015 -1.19271e-015 2.0956 0.66 -0.3894 9.54166e-015 1.59028e-015 5.56597e-015 5.0395 -0.09 2.4971 -9.54166e-015 5.1684e-015 -1.19271e-015 3.7921 -1.552 1.4806 -3.18055e-015 7.15625e-015 4.37326e-015 1.4655 -1.808 0.9609 6.62086e-032 3.18055e-015 -1.19271e-015 4.9141 -1.269 0.3591 -9.54166e-015 5.1684e-015 -1.19271e-015 3.1477 -1.685 0.8462 -3.18055e-015 7.15625e-015 4.37326e-015 0.8055 -1.585 0.7955 6.62086e-032 3.18055e-015 -1.19271e-015 -1.7069 20.075 5.0056 18.0018 11.1716 -22.9099 -13.6458 -0.047 -4.849 -0.908657 -1.55062 81.425 -28.3255 -0.9759 2.2888 16.6164 -9.56395 35.952 -22.1583 -0.53 10.8316 55.0782 -24.6031 23.4769 -0.786 0.112 2.5817 -9.54166e-015 -4.77083e-015 -6.36111e-015 -0.3601 -0.878 4.2331 3.09564e-006 2.22439e-007 1.77029e-006 -1.8127 -1.216 2.2227 1.32417e-031 -4.77083e-015 1.59028e-015 -0.9571 1.114 1.7695 8.82781e-032 1.59028e-015 -3.18055e-015 -4.1246 0.487 4.1451 -1.27222e-014 -1.11319e-014 3.18055e-015 -3.4052 -1.454 2.7682 3.09564e-006 2.22439e-007 1.77029e-006 -1.4531 -1.795 1.2713 7.06225e-031 6.36111e-015 -6.36111e-015 -5.6954 0.21 2.1184 -1.27222e-014 -1.11319e-014 3.18055e-015 -3.9766 -1.54 2.3863 3.09564e-006 2.22439e-007 1.77029e-006 -1.4042 -1.926 1.125 7.06225e-031 6.36111e-015 -6.36111e-015 -2.0956 0.66 -0.3894 8.82781e-032 1.59028e-015 -3.18055e-015 -5.0395 -0.09 2.4971 -1.27222e-014 -1.11319e-014 3.18055e-015 -3.7921 -1.552 1.4806 3.09564e-006 2.22439e-007 1.77029e-006 -1.4655 -1.808 0.9609 7.06225e-031 6.36111e-015 -6.36111e-015 -4.9141 -1.269 0.3592 -1.27222e-014 -1.11319e-014 3.18055e-015 -3.1477 -1.685 0.8462 3.09564e-006 2.22439e-007 1.77029e-006 -0.8055 -1.585 0.7955 7.06225e-031 6.36111e-015 -6.36111e-015 8.367 -8.2066 0.5982 107.757 -66.6143 96.9949 2.1923 -43.463 -0.4932 -93.4267 30.6294 101.164 0.7333 -45.8593 -2.6451 22.0737 26.1952 -26.6245 -8.367 -8.2066 0.5982 -99.5973 -66.7449 -89.8088 -2.1923 -43.463 -0.4931 79.2948 28.545 -93.1112 -0.7333 -45.8593 -2.6451 -22.19 24.8908 27.1455 
